<svg xmlns="http://www.w3.org/2000/svg" width="1104" height="468" viewBox="0 0 1104 468">
<g>
<path d="M 148.04 212.95 L 147.50 258.50 L 139.75 258.79 L 132.00 259.08 L 132.00 131.00 L 160.25 131.03 C192.51,131.07 200.67,131.84 208.76,135.66 C228.66,145.04 236.57,170.99 225.96,192.06 C221.43,201.06 211.87,208.24 200.67,211.06 L 196.09 212.21 L 212.41 229.86 C236.90,256.33 237.86,257.42 237.35,258.24 C237.09,258.66 232.63,259.00 227.44,259.00 L 218.00 259.00 L 212.11 252.75 C208.88,249.31 199.51,239.07 191.31,230.00 L 176.39 213.50 ZM 690.76 209.75 L 690.50 258.50 L 683.46 258.79 C679.58,258.95 676.09,258.76 675.71,258.37 C675.32,257.98 675.00,229.17 675.00,194.33 L 675.00 131.00 L 682.85 131.00 C689.09,131.00 690.99,131.36 692.16,132.75 C692.97,133.71 703.01,148.81 714.47,166.30 C725.93,183.79 735.66,197.74 736.09,197.30 C736.53,196.86 744.16,185.25 753.05,171.50 C761.94,157.75 771.48,143.01 774.24,138.75 L 779.26 131.00 L 796.01 131.00 L 795.76 194.75 L 795.50 258.50 L 780.50 258.50 L 780.24 210.25 C780.09,183.02 779.59,162.00 779.09,162.00 C778.61,162.00 775.37,166.39 771.90,171.75 C768.43,177.11 759.61,190.61 752.29,201.75 C739.49,221.22 738.85,222.00 735.72,222.00 C732.56,222.00 731.89,221.13 713.48,193.38 C703.04,177.64 694.09,163.91 693.60,162.88 C693.10,161.85 692.32,161.00 691.86,161.00 C691.40,161.00 690.90,182.94 690.76,209.75 ZM 974.08 243.00 L 973.50 258.50 L 925.43 258.76 C898.99,258.90 877.05,258.71 876.68,258.34 C876.30,257.97 876.01,255.83 876.02,253.58 C876.04,250.27 877.02,248.14 881.27,242.25 C884.15,238.27 889.12,231.29 892.33,226.75 C897.47,219.48 908.98,203.27 940.28,159.26 L 948.98 147.03 L 914.74 146.76 L 880.50 146.50 L 879.92 131.00 L 974.00 131.00 L 974.00 135.01 C974.00,138.37 972.91,140.52 967.31,148.26 C958.50,160.42 916.67,218.68 907.33,231.78 C903.30,237.44 900.00,242.28 900.00,242.53 C900.00,242.79 916.67,243.00 937.04,243.00 ZM 148.00 147.00 L 148.00 198.21 L 171.25 197.81 C192.95,197.43 194.85,197.25 199.76,195.08 C206.34,192.16 210.47,187.53 212.46,180.83 C216.44,167.41 211.58,154.51 200.62,149.40 C195.68,147.10 194.66,147.02 171.75,147.01 ZM 374.00 245.00 L 374.00 261.00 L 369.75 260.91 C364.15,260.79 352.60,258.59 347.12,256.59 C328.05,249.65 312.88,231.41 308.38,210.00 C306.24,199.87 307.01,182.19 310.01,172.50 C317.88,147.05 337.47,131.65 363.75,130.26 L 374.00 129.71 L 374.00 145.00 L 368.21 145.00 C355.87,145.00 344.23,149.89 336.09,158.50 C327.21,167.88 323.00,179.31 323.00,194.00 C323.00,208.40 327.36,220.73 335.75,230.06 C344.01,239.26 356.45,245.00 368.09,245.00 ZM 544.50 258.37 C541.20,259.21 535.01,260.21 530.75,260.59 L 523.00 261.28 L 523.00 245.28 L 531.25 244.74 C541.43,244.06 548.83,241.31 556.42,235.35 C578.85,217.75 581.04,178.69 560.76,157.89 C552.62,149.55 541.58,145.04 529.25,145.01 L 523.00 145.00 L 523.00 130.00 L 530.75 130.01 C565.37,130.08 590.18,157.00 590.18,194.50 C590.18,214.76 584.23,229.87 571.04,243.04 C562.88,251.20 555.16,255.66 544.50,258.37 Z" fill="rgb(0,0,0)"/>
<path d="M 690.17 336.97 C684.63,338.51 681.75,338.23 676.93,335.68 C664.34,329.03 664.38,305.65 676.99,299.25 C682.40,296.50 686.89,296.39 691.79,298.89 C696.53,301.31 698.85,303.90 700.55,308.68 C704.70,320.30 699.53,334.37 690.17,336.97 ZM 677.73 330.62 C681.47,334.10 687.95,333.93 692.00,330.25 C698.25,324.59 698.25,311.10 692.00,304.84 C688.69,301.54 682.53,300.95 678.55,303.56 C671.74,308.02 671.24,324.61 677.73,330.62 ZM 542.50 305.98 L 541.95 337.00 L 537.00 337.00 L 537.00 298.00 L 540.35 298.00 C543.60,298.00 543.95,298.43 552.60,313.00 L 561.50 328.00 L 561.78 313.00 L 562.05 298.00 L 567.00 298.00 L 567.00 337.00 L 564.05 337.00 C561.32,337.00 560.44,335.89 551.80,321.49 ZM 168.22 321.48 L 167.95 337.00 L 163.00 337.00 L 163.00 298.00 L 166.25 298.00 C169.38,298.00 169.84,298.57 178.50,313.17 L 187.50 328.34 L 187.78 313.17 L 188.05 298.00 L 193.00 298.00 L 193.00 337.13 L 189.76 336.81 C186.74,336.52 185.94,335.51 177.51,321.23 L 168.50 305.96 ZM 455.32 336.55 C445.00,340.23 435.46,335.66 432.48,325.61 C428.24,311.33 434.53,298.79 446.66,297.35 C452.51,296.66 458.18,298.82 460.73,302.71 C462.17,304.91 462.17,305.26 460.72,306.71 C459.28,308.15 458.86,308.02 455.99,305.15 C453.46,302.62 452.02,302.00 448.65,302.00 C443.87,302.00 440.61,303.90 438.63,307.81 C435.01,315.00 436.62,326.98 441.77,331.04 C443.99,332.79 445.48,333.12 449.69,332.77 C456.75,332.19 458.00,330.93 458.00,324.38 L 458.00 319.00 L 453.00 319.00 C448.32,319.00 448.00,318.84 448.00,316.48 C448.00,313.99 448.11,313.96 455.50,314.10 L 463.00 314.25 L 463.00 322.97 C463.00,332.77 462.26,334.07 455.32,336.55 ZM 926.00 335.70 C926.00,336.70 923.09,337.00 913.50,337.00 L 901.00 337.00 L 901.00 298.00 L 913.00 298.00 C924.11,298.00 925.00,298.14 925.00,299.89 C925.00,302.45 923.14,303.00 914.42,303.00 L 907.00 303.00 L 907.00 313.00 L 913.75 313.02 C920.93,313.03 922.59,313.60 922.53,316.00 C922.51,317.18 920.82,317.56 914.75,317.79 L 907.00 318.08 L 907.00 332.00 L 915.30 332.00 C923.50,332.00 926.00,332.86 926.00,335.70 ZM 969.46 335.30 C966.16,337.70 958.32,338.41 954.45,336.65 C951.52,335.32 946.00,329.70 946.00,328.05 C946.00,327.61 946.66,326.70 947.46,326.04 C948.65,325.04 949.62,325.57 952.80,328.91 C955.88,332.15 957.41,333.00 960.12,333.00 C965.42,333.00 968.17,330.56 967.80,326.19 C967.47,322.15 966.45,321.39 956.67,317.89 C947.18,314.48 944.25,307.11 949.88,300.80 C952.52,297.85 953.29,297.57 958.81,297.54 C963.38,297.51 965.52,298.00 967.60,299.55 C971.84,302.71 972.76,304.67 970.88,306.55 C969.43,308.00 969.03,307.87 966.22,305.07 C961.18,300.03 953.00,301.23 953.00,307.01 C953.00,310.43 955.00,311.97 962.70,314.45 C968.54,316.33 974.00,321.62 974.00,325.39 C974.00,329.19 972.08,333.38 969.46,335.30 ZM 514.00 335.70 C514.00,336.70 511.09,337.00 501.50,337.00 L 489.00 337.00 L 489.00 298.00 L 501.07 298.00 C513.01,298.00 513.14,298.02 512.82,300.25 C512.52,302.37 511.98,302.52 503.25,302.79 L 494.00 303.08 L 494.00 313.00 L 499.25 313.14 C502.14,313.22 505.74,313.22 507.25,313.14 C509.56,313.02 510.00,313.40 510.00,315.50 C510.00,317.96 509.87,318.00 502.00,318.00 L 494.00 318.00 L 494.00 332.00 L 502.80 332.00 C511.51,332.00 514.00,332.82 514.00,335.70 ZM 290.00 335.70 C290.00,336.70 287.09,337.00 277.50,337.00 L 265.00 337.00 L 265.00 298.00 L 277.07 298.00 C289.01,298.00 289.14,298.02 288.82,300.25 C288.52,302.37 287.98,302.52 279.25,302.79 L 270.00 303.08 L 270.00 313.00 L 275.25 313.14 C278.14,313.22 281.74,313.22 283.25,313.14 C285.56,313.02 286.00,313.40 286.00,315.50 C286.00,317.96 285.87,318.00 278.00,318.00 L 270.00 318.00 L 270.00 332.00 L 278.80 332.00 C287.51,332.00 290.00,332.82 290.00,335.70 ZM 868.99 336.39 C862.47,339.00 856.16,337.87 851.51,333.26 C847.47,329.26 846.00,324.97 846.00,317.19 C846.00,308.01 848.82,302.40 855.01,299.25 C862.56,295.40 870.46,296.83 874.49,302.78 C877.45,307.13 877.64,308.72 875.25,309.23 C874.17,309.46 872.22,308.14 870.17,305.80 C867.42,302.65 866.19,302.00 863.06,302.00 C854.01,302.00 848.79,312.51 852.03,324.19 C853.32,328.81 858.14,333.00 862.17,333.00 C865.02,333.00 871.00,330.27 871.00,328.98 C871.00,327.15 873.74,324.96 875.28,325.55 C879.22,327.07 875.28,333.87 868.99,336.39 ZM 776.79 327.75 C776.50,336.47 776.49,336.50 773.75,336.82 L 771.00 337.13 L 771.00 298.00 L 782.50 298.00 C793.12,298.00 794.00,298.15 794.00,299.89 C794.00,302.42 792.13,303.00 784.01,303.00 L 777.19 303.00 L 776.84 308.46 L 776.50 313.93 L 784.00 314.21 C790.91,314.48 791.52,314.68 791.82,316.75 C792.13,318.91 791.85,319.00 784.61,319.00 L 777.08 319.00 ZM 731.00 328.00 C731.00,336.93 730.98,337.00 728.50,337.00 L 726.00 337.00 L 726.00 298.00 L 737.50 298.00 C748.12,298.00 749.00,298.15 749.00,299.89 C749.00,302.45 747.14,303.00 738.42,303.00 L 731.00 303.00 L 731.00 314.00 L 738.50 314.00 C745.83,314.00 746.00,314.06 746.00,316.50 C746.00,318.94 745.83,319.00 738.50,319.00 L 731.00 319.00 ZM 232.00 303.00 L 232.00 337.00 L 226.00 337.00 L 226.00 303.00 L 221.25 302.98 C215.99,302.97 214.64,302.35 214.21,299.75 C213.94,298.15 215.18,298.00 228.96,298.00 C240.63,298.00 244.00,298.29 244.00,299.30 C244.00,301.76 241.59,303.00 236.80,303.00 ZM 606.00 303.00 L 606.00 337.00 L 603.67 337.00 C602.38,337.00 601.03,336.70 600.67,336.33 C600.30,335.97 600.00,328.32 600.00,319.33 L 600.00 303.00 L 596.08 303.00 C590.87,303.00 589.00,302.18 589.00,299.89 C589.00,298.12 589.94,298.00 603.50,298.00 C617.06,298.00 618.00,298.12 618.00,299.89 C618.00,302.23 616.12,303.00 610.42,303.00 ZM 380.00 335.11 C380.00,336.85 379.12,337.00 368.50,337.00 L 357.00 337.00 L 357.00 298.00 L 363.00 298.00 L 363.00 332.00 L 369.92 332.00 C378.13,332.00 380.00,332.58 380.00,335.11 ZM 335.24 334.50 L 335.72 337.00 L 313.00 337.00 L 313.00 298.00 L 318.00 298.00 L 318.00 332.00 L 326.38 332.00 C334.53,332.00 334.78,332.07 335.24,334.50 ZM 822.00 298.00 L 822.00 337.00 L 819.67 337.00 C818.38,337.00 817.03,336.70 816.67,336.33 C816.30,335.97 816.00,327.19 816.00,316.83 L 816.00 298.00 ZM 136.50 298.50 L 136.50 336.50 L 133.75 336.82 L 131.00 337.13 L 131.00 297.87 L 133.75 298.18 ZM 407.00 298.00 L 407.00 337.00 L 402.00 337.00 L 402.00 298.00 Z" fill="rgb(187,187,187)"/>
<path d="M 0.00 234.00 L 0.00 0.00 L 552.00 0.00 L 1104.00 0.00 L 1104.00 234.00 L 1104.00 468.00 L 552.00 468.00 L 0.00 468.00 L 0.00 234.00 ZM 455.32 336.55 C462.26,334.07 463.00,332.77 463.00,322.97 L 463.00 314.25 L 455.50 314.10 C448.11,313.96 448.00,313.99 448.00,316.48 C448.00,318.84 448.32,319.00 453.00,319.00 L 458.00 319.00 L 458.00 324.38 C458.00,330.93 456.75,332.19 449.69,332.77 C445.48,333.12 443.99,332.79 441.77,331.04 C436.62,326.98 435.01,315.00 438.63,307.81 C440.61,303.90 443.87,302.00 448.65,302.00 C452.02,302.00 453.46,302.62 455.99,305.15 C458.86,308.02 459.28,308.15 460.72,306.71 C462.17,305.26 462.17,304.91 460.73,302.71 C458.18,298.82 452.51,296.66 446.66,297.35 C434.53,298.79 428.24,311.33 432.48,325.61 C435.46,335.66 445.00,340.23 455.32,336.55 ZM 690.17 336.97 C699.53,334.37 704.70,320.30 700.55,308.68 C698.85,303.90 696.53,301.31 691.79,298.89 C686.89,296.39 682.40,296.50 676.99,299.25 C664.38,305.65 664.34,329.03 676.93,335.68 C681.75,338.23 684.63,338.51 690.17,336.97 ZM 868.99 336.39 C875.28,333.87 879.22,327.07 875.28,325.55 C873.74,324.96 871.00,327.15 871.00,328.98 C871.00,330.27 865.02,333.00 862.17,333.00 C858.14,333.00 853.32,328.81 852.03,324.19 C848.79,312.51 854.01,302.00 863.06,302.00 C866.19,302.00 867.42,302.65 870.17,305.80 C872.22,308.14 874.17,309.46 875.25,309.23 C877.64,308.72 877.45,307.13 874.49,302.78 C870.46,296.83 862.56,295.40 855.01,299.25 C848.82,302.40 846.00,308.01 846.00,317.19 C846.00,324.97 847.47,329.26 851.51,333.26 C856.16,337.87 862.47,339.00 868.99,336.39 ZM 969.46 335.30 C972.08,333.38 974.00,329.19 974.00,325.39 C974.00,321.62 968.54,316.33 962.70,314.45 C955.00,311.97 953.00,310.43 953.00,307.01 C953.00,301.23 961.18,300.03 966.22,305.07 C969.03,307.87 969.43,308.00 970.88,306.55 C972.76,304.67 971.84,302.71 967.60,299.55 C965.52,298.00 963.38,297.51 958.81,297.54 C953.29,297.57 952.52,297.85 949.88,300.80 C944.25,307.11 947.18,314.48 956.67,317.89 C966.45,321.39 967.47,322.15 967.80,326.19 C968.17,330.56 965.42,333.00 960.12,333.00 C957.41,333.00 955.88,332.15 952.80,328.91 C949.62,325.57 948.65,325.04 947.46,326.04 C946.66,326.70 946.00,327.61 946.00,328.05 C946.00,329.70 951.52,335.32 954.45,336.65 C958.32,338.41 966.16,337.70 969.46,335.30 ZM 136.50 317.50 L 136.50 298.50 L 133.75 298.18 L 131.00 297.87 L 131.00 317.50 L 131.00 337.13 L 133.75 336.82 L 136.50 336.50 L 136.50 317.50 ZM 168.22 321.48 L 168.50 305.96 L 177.51 321.23 C185.94,335.51 186.74,336.52 189.76,336.81 L 193.00 337.13 L 193.00 317.56 L 193.00 298.00 L 190.53 298.00 L 188.05 298.00 L 187.78 313.17 L 187.50 328.34 L 178.50 313.17 C169.84,298.57 169.38,298.00 166.25,298.00 L 163.00 298.00 L 163.00 317.50 L 163.00 337.00 L 165.47 337.00 L 167.95 337.00 L 168.22 321.48 ZM 232.00 320.00 L 232.00 303.00 L 236.80 303.00 C241.59,303.00 244.00,301.76 244.00,299.30 C244.00,298.29 240.63,298.00 228.96,298.00 C215.18,298.00 213.94,298.15 214.21,299.75 C214.64,302.35 215.99,302.97 221.25,302.98 L 226.00 303.00 L 226.00 320.00 L 226.00 337.00 L 229.00 337.00 L 232.00 337.00 L 232.00 320.00 ZM 290.00 335.70 C290.00,332.82 287.51,332.00 278.80,332.00 L 270.00 332.00 L 270.00 325.00 L 270.00 318.00 L 278.00 318.00 C285.87,318.00 286.00,317.96 286.00,315.50 C286.00,313.40 285.56,313.02 283.25,313.14 C281.74,313.22 278.14,313.22 275.25,313.14 L 270.00 313.00 L 270.00 308.04 L 270.00 303.08 L 279.25 302.79 C287.98,302.52 288.52,302.37 288.82,300.25 C289.14,298.02 289.01,298.00 277.07,298.00 L 265.00 298.00 L 265.00 317.50 L 265.00 337.00 L 277.50 337.00 C287.09,337.00 290.00,336.70 290.00,335.70 ZM 335.24 334.50 C334.78,332.07 334.53,332.00 326.38,332.00 L 318.00 332.00 L 318.00 315.00 L 318.00 298.00 L 315.50 298.00 L 313.00 298.00 L 313.00 317.50 L 313.00 337.00 L 324.36 337.00 L 335.72 337.00 L 335.24 334.50 ZM 380.00 335.11 C380.00,332.58 378.13,332.00 369.92,332.00 L 363.00 332.00 L 363.00 315.00 L 363.00 298.00 L 360.00 298.00 L 357.00 298.00 L 357.00 317.50 L 357.00 337.00 L 368.50 337.00 C379.12,337.00 380.00,336.85 380.00,335.11 ZM 407.00 317.50 L 407.00 298.00 L 404.50 298.00 L 402.00 298.00 L 402.00 317.50 L 402.00 337.00 L 404.50 337.00 L 407.00 337.00 L 407.00 317.50 ZM 514.00 335.70 C514.00,332.82 511.51,332.00 502.80,332.00 L 494.00 332.00 L 494.00 325.00 L 494.00 318.00 L 502.00 318.00 C509.87,318.00 510.00,317.96 510.00,315.50 C510.00,313.40 509.56,313.02 507.25,313.14 C505.74,313.22 502.14,313.22 499.25,313.14 L 494.00 313.00 L 494.00 308.04 L 494.00 303.08 L 503.25 302.79 C511.98,302.52 512.52,302.37 512.82,300.25 C513.14,298.02 513.01,298.00 501.07,298.00 L 489.00 298.00 L 489.00 317.50 L 489.00 337.00 L 501.50 337.00 C511.09,337.00 514.00,336.70 514.00,335.70 ZM 542.22 321.49 L 542.50 305.98 L 551.80 321.49 C560.44,335.89 561.32,337.00 564.05,337.00 L 567.00 337.00 L 567.00 317.50 L 567.00 298.00 L 564.53 298.00 L 562.05 298.00 L 561.78 313.00 L 561.50 328.00 L 552.60 313.00 C543.95,298.43 543.60,298.00 540.35,298.00 L 537.00 298.00 L 537.00 317.50 L 537.00 337.00 L 539.47 337.00 L 541.95 337.00 L 542.22 321.49 ZM 606.00 320.00 L 606.00 303.00 L 610.42 303.00 C616.12,303.00 618.00,302.23 618.00,299.89 C618.00,298.12 617.06,298.00 603.50,298.00 C589.94,298.00 589.00,298.12 589.00,299.89 C589.00,302.18 590.87,303.00 596.08,303.00 L 600.00 303.00 L 600.00 319.33 C600.00,328.32 600.30,335.97 600.67,336.33 C601.03,336.70 602.38,337.00 603.67,337.00 L 606.00 337.00 L 606.00 320.00 ZM 731.00 328.00 L 731.00 319.00 L 738.50 319.00 C745.83,319.00 746.00,318.94 746.00,316.50 C746.00,314.06 745.83,314.00 738.50,314.00 L 731.00 314.00 L 731.00 308.50 L 731.00 303.00 L 738.42 303.00 C747.14,303.00 749.00,302.45 749.00,299.89 C749.00,298.15 748.12,298.00 737.50,298.00 L 726.00 298.00 L 726.00 317.50 L 726.00 337.00 L 728.50 337.00 C730.98,337.00 731.00,336.93 731.00,328.00 ZM 776.79 327.75 L 777.08 319.00 L 784.61 319.00 C791.85,319.00 792.13,318.91 791.82,316.75 C791.52,314.68 790.91,314.48 784.00,314.21 L 776.50 313.93 L 776.84 308.46 L 777.19 303.00 L 784.01 303.00 C792.13,303.00 794.00,302.42 794.00,299.89 C794.00,298.15 793.12,298.00 782.50,298.00 L 771.00 298.00 L 771.00 317.57 L 771.00 337.13 L 773.75 336.82 C776.49,336.50 776.50,336.47 776.79,327.75 ZM 822.00 317.50 L 822.00 298.00 L 819.00 298.00 L 816.00 298.00 L 816.00 316.83 C816.00,327.19 816.30,335.97 816.67,336.33 C817.03,336.70 818.38,337.00 819.67,337.00 L 822.00 337.00 L 822.00 317.50 ZM 926.00 335.70 C926.00,332.86 923.50,332.00 915.30,332.00 L 907.00 332.00 L 907.00 325.04 L 907.00 318.08 L 914.75 317.79 C920.82,317.56 922.51,317.18 922.53,316.00 C922.59,313.60 920.93,313.03 913.75,313.02 L 907.00 313.00 L 907.00 308.00 L 907.00 303.00 L 914.42 303.00 C923.14,303.00 925.00,302.45 925.00,299.89 C925.00,298.14 924.11,298.00 913.00,298.00 L 901.00 298.00 L 901.00 317.50 L 901.00 337.00 L 913.50 337.00 C923.09,337.00 926.00,336.70 926.00,335.70 ZM 374.00 253.00 L 374.00 245.00 L 368.09 245.00 C356.45,245.00 344.01,239.26 335.75,230.06 C327.36,220.73 323.00,208.40 323.00,194.00 C323.00,179.31 327.21,167.88 336.09,158.50 C344.23,149.89 355.87,145.00 368.21,145.00 L 374.00 145.00 L 374.00 137.36 L 374.00 129.71 L 363.75 130.26 C337.47,131.65 317.88,147.05 310.01,172.50 C307.01,182.19 306.24,199.87 308.38,210.00 C312.88,231.41 328.05,249.65 347.12,256.59 C352.60,258.59 364.15,260.79 369.75,260.91 L 374.00 261.00 L 374.00 253.00 ZM 544.50 258.37 C555.16,255.66 562.88,251.20 571.04,243.04 C584.23,229.87 590.18,214.76 590.18,194.50 C590.18,157.00 565.37,130.08 530.75,130.01 L 523.00 130.00 L 523.00 137.50 L 523.00 145.00 L 529.25 145.01 C541.58,145.04 552.62,149.55 560.76,157.89 C581.04,178.69 578.85,217.75 556.42,235.35 C548.83,241.31 541.43,244.06 531.25,244.74 L 523.00 245.28 L 523.00 253.28 L 523.00 261.28 L 530.75 260.59 C535.01,260.21 541.20,259.21 544.50,258.37 ZM 147.77 235.72 L 148.04 212.95 L 162.22 213.22 L 176.39 213.50 L 191.31 230.00 C199.51,239.07 208.88,249.31 212.11,252.75 L 218.00 259.00 L 227.44 259.00 C232.63,259.00 237.09,258.66 237.35,258.24 C237.86,257.42 236.90,256.33 212.41,229.86 L 196.09 212.21 L 200.67 211.06 C211.87,208.24 221.43,201.06 225.96,192.06 C236.57,170.99 228.66,145.04 208.76,135.66 C200.67,131.84 192.51,131.07 160.25,131.03 L 132.00 131.00 L 132.00 195.04 L 132.00 259.08 L 139.75 258.79 L 147.50 258.50 L 147.77 235.72 ZM 690.76 209.75 C690.90,182.94 691.40,161.00 691.86,161.00 C692.32,161.00 693.10,161.85 693.60,162.88 C694.09,163.91 703.04,177.64 713.48,193.38 C731.89,221.13 732.56,222.00 735.72,222.00 C738.85,222.00 739.49,221.22 752.29,201.75 C759.61,190.61 768.43,177.11 771.90,171.75 C775.37,166.39 778.61,162.00 779.09,162.00 C779.59,162.00 780.09,183.02 780.24,210.25 L 780.50 258.50 L 788.00 258.50 L 795.50 258.50 L 795.76 194.75 L 796.01 131.00 L 787.64 131.00 L 779.26 131.00 L 774.24 138.75 C771.48,143.01 761.94,157.75 753.05,171.50 C744.16,185.25 736.53,196.86 736.09,197.30 C735.66,197.74 725.93,183.79 714.47,166.30 C703.01,148.81 692.97,133.71 692.16,132.75 C690.99,131.36 689.09,131.00 682.85,131.00 L 675.00 131.00 L 675.00 194.33 C675.00,229.17 675.32,257.98 675.71,258.37 C676.09,258.76 679.58,258.95 683.46,258.79 L 690.50 258.50 L 690.76 209.75 ZM 973.79 250.75 L 974.08 243.00 L 937.04 243.00 C916.67,243.00 900.00,242.79 900.00,242.53 C900.00,242.28 903.30,237.44 907.33,231.78 C916.67,218.68 958.50,160.42 967.31,148.26 C972.91,140.52 974.00,138.37 974.00,135.01 L 974.00 131.00 L 926.96 131.00 L 879.92 131.00 L 880.21 138.75 L 880.50 146.50 L 914.74 146.76 L 948.98 147.03 L 940.28 159.26 C908.98,203.27 897.47,219.48 892.33,226.75 C889.12,231.29 884.15,238.27 881.27,242.25 C877.02,248.14 876.04,250.27 876.02,253.58 C876.01,255.83 876.30,257.97 876.68,258.34 C877.05,258.71 898.99,258.90 925.43,258.76 L 973.50 258.50 L 973.79 250.75 ZM 677.73 330.62 C671.24,324.61 671.74,308.02 678.55,303.56 C682.53,300.95 688.69,301.54 692.00,304.84 C698.25,311.10 698.25,324.59 692.00,330.25 C687.95,333.93 681.47,334.10 677.73,330.62 ZM 148.00 172.61 L 148.00 147.00 L 171.75 147.01 C194.66,147.02 195.68,147.10 200.62,149.40 C211.58,154.51 216.44,167.41 212.46,180.83 C210.47,187.53 206.34,192.16 199.76,195.08 C194.85,197.25 192.95,197.43 171.25,197.81 L 148.00 198.21 L 148.00 172.61 Z" fill="rgb(254,254,254)"/>
</g>
</svg>